<?xml version="1.0" standalone="no"?>
<!DOCTYPE svg PUBLIC "-//W3C//DTD SVG 20010904//EN"
 "http://www.w3.org/TR/2001/REC-SVG-20010904/DTD/svg10.dtd">
<svg version="1.0" xmlns="http://www.w3.org/2000/svg"
 width="200.000000pt" height="200.000000pt" viewBox="0 0 200.000000 200.000000"
 preserveAspectRatio="xMidYMid meet">

<g transform="translate(0.000000,200.000000) scale(0.100000,-0.100000)"
fill="#000000" stroke="none">
<path d="M1174 1539 c-42 -13 -78 -34 -112 -64 -53 -48 -76 -92 -87 -168 -7
-45 -8 -47 -41 -47 l-34 0 0 -55 0 -55 35 0 35 0 0 -245 0 -245 75 0 75 0 0
245 0 246 82 -3 82 -3 73 -135 c40 -74 73 -141 73 -149 0 -12 -142 -285 -192
-368 l-20 -33 85 0 85 0 42 77 c24 43 55 101 70 128 75 137 100 186 100 196 0
7 -39 84 -87 173 -48 88 -94 175 -103 191 l-15 30 -137 3 -138 3 0 30 c0 60
50 121 110 134 29 6 30 8 30 71 0 73 3 72 -86 43z"/>
<path d="M522 1278 c-29 -4 -71 -17 -94 -29 -38 -19 -43 -20 -53 -5 -9 12 -29
16 -74 16 l-61 0 0 -400 0 -400 70 0 70 0 0 125 c0 69 2 125 4 125 3 0 20 -9
38 -19 116 -66 268 -47 370 47 66 61 92 120 96 219 3 70 1 89 -21 135 -34 76
-79 123 -150 157 -71 33 -119 41 -195 29z m106 -143 c103 -44 144 -153 93
-252 -59 -118 -239 -123 -306 -9 -56 96 -21 211 80 257 49 23 84 24 133 4z"/>
<path d="M1612 1181 c-23 -43 -42 -85 -42 -92 0 -8 18 -45 39 -83 l38 -68 40
73 c22 41 62 113 88 162 l47 87 -84 0 -84 0 -42 -79z"/>
</g>
</svg>
