<?xml version="1.0" encoding="UTF-8"?>
<svg width="256" height="256" viewBox="0 0 256 256" version="1.1" xmlns="http://www.w3.org/2000/svg">
    <g>
        <circle fill="#2FBFBF" cx="128" cy="128" r="128"/>
        <path d="M188.4,108.3c0,4.3-3.5,7.8-7.8,7.8h-41.7v13.9h41.7c4.3,0,7.8,3.5,7.8,7.8v41.7c0,4.3-3.5,7.8-7.8,7.8h-41.7v13.9
            c0,4.3-3.5,7.8-7.8,7.8H67.6c-4.3,0-7.8-3.5-7.8-7.8V54.8c0-4.3,3.5-7.8,7.8-7.8h113c4.3,0,7.8,3.5,7.8,7.8V108.3z M83.2,116.1
            h41.7c4.3,0,7.8-3.5,7.8-7.8V66.5c0-4.3-3.5-7.8-7.8-7.8H83.2c-4.3,0-7.8,3.5-7.8,7.8v41.7C75.4,112.6,78.9,116.1,83.2,116.1z
            M132.8,137.8H83.2c-4.3,0-7.8,3.5-7.8,7.8v41.7c0,4.3,3.5,7.8,7.8,7.8h49.6c4.3,0,7.8-3.5,7.8-7.8v-41.7
            C140.6,141.3,137.1,137.8,132.8,137.8z" fill="#FFFFFF"/>
    </g>
</svg> 