<?xml version="1.0" encoding="UTF-8"?>
<svg width="256px" height="256px" viewBox="0 0 256 256" version="1.1" xmlns="http://www.w3.org/2000/svg">
    <g stroke="none" stroke-width="1" fill="none" fill-rule="evenodd">
        <rect fill="#00A9A5" x="0" y="0" width="256" height="256" rx="128"></rect>
        <path d="M128,64 C93.49,64 65.6,91.89 65.6,126.4 C65.6,160.91 93.49,188.8 128,188.8 C162.51,188.8 190.4,160.91 190.4,126.4 C190.4,91.89 162.51,64 128,64 Z M128,176.8 C99.33,176.8 76,153.47 76,124.8 C76,96.13 99.33,72.8 128,72.8 C156.67,72.8 180,96.13 180,124.8 C180,153.47 156.67,176.8 128,176.8 Z" fill="#FFFFFF"></path>
        <path d="M128,88 C111.43,88 98,101.43 98,118 C98,134.57 111.43,148 128,148 C144.57,148 158,134.57 158,118 C158,101.43 144.57,88 128,88 Z M128,140 C117.01,140 108,130.99 108,120 C108,109.01 117.01,100 128,100 C138.99,100 148,109.01 148,120 C148,130.99 138.99,140 128,140 Z" fill="#FFFFFF"></path>
    </g>
</svg> 